<?xml version="1.0" encoding="UTF-8" standalone="no"?>
<!-- Created with Inkscape (http://www.inkscape.org/) -->

<svg
   xmlns:dc="http://purl.org/dc/elements/1.1/"
   xmlns:cc="http://creativecommons.org/ns#"
   xmlns:rdf="http://www.w3.org/1999/02/22-rdf-syntax-ns#"
   xmlns:svg="http://www.w3.org/2000/svg"
   xmlns="http://www.w3.org/2000/svg"
   xmlns:inkscape="http://www.inkscape.org/namespaces/inkscape"
   version="1.1"
   width="318.89999"
   height="79.837502"
   id="svg2"
   xml:space="preserve"><metadata
     id="metadata8"><rdf:RDF><cc:Work
         rdf:about=""><dc:format>image/svg+xml</dc:format><dc:type
           rdf:resource="http://purl.org/dc/dcmitype/StillImage" /></cc:Work></rdf:RDF></metadata><defs
     id="defs6" /><g
     transform="matrix(1.25,0,0,-1.25,0,79.8375)"
     id="g10"><g
       transform="scale(0.1,0.1)"
       id="g12"><path
         d="M 2227.23,49.6367 C 2211.17,22.3359 2172.13,0 2140.46,0 L 35.3477,0 C 3.67188,0 -9.11719,22.3359 6.93359,49.6367 L 323.941,589.09 c 16.043,27.305 55.082,49.648 86.766,49.648 l 2105.123,0 c 31.67,0 44.47,-22.343 28.42,-49.648 L 2227.23,49.6367"
         inkscape:connector-curvature="0"
         id="path14"
         style="fill:#f79011;fill-opacity:1;fill-rule:nonzero;stroke:none" /><path
         d="m 1901.61,221.973 58.0195,0 0,206.387 -58.0195,0 0,-206.387 z"
         inkscape:connector-curvature="0"
         id="path16"
         style="fill:#ffffff;fill-opacity:1;fill-rule:nonzero;stroke:none" /><path
         d="m 2043.07,324.922 -0.13,0 0.13,0.476 59.56,102.961 -58.02,0 -59.58,-102.961 0.34,-0.476 -0.34,0 0,0 59.58,-102.949 58.02,0 0,0 -59.56,102.949"
         inkscape:connector-curvature="0"
         id="path18"
         style="fill:#ffffff;fill-opacity:1;fill-rule:nonzero;stroke:none" /><path
         d="m 1402.94,428.34 -46.6,0 -119.17,-206.367 58.69,0 84.87,146.933 0,-146.933 58.66,0 0,206.367 -36.45,0"
         inkscape:connector-curvature="0"
         id="path20"
         style="fill:#ffffff;fill-opacity:1;fill-rule:nonzero;stroke:none" /><path
         d="m 767.289,307.996 91.348,0 19.777,33.848 -92.656,0 -18.469,-33.848"
         inkscape:connector-curvature="0"
         id="path22"
         style="fill:#ffffff;fill-opacity:1;fill-rule:nonzero;stroke:none" /><path
         d="m 748.617,350.078 0.059,-0.012 c 0,26.086 7.793,35.879 33.164,35.879 l 82.558,0 24.7,42.785 -115.918,0 c -49.367,0 -81.985,-17.304 -81.985,-79.851 l 0,-127.309 178.36,0 24.687,42.774 -145.625,0 0,85.734"
         inkscape:connector-curvature="0"
         id="path24"
         style="fill:#ffffff;fill-opacity:1;fill-rule:nonzero;stroke:none" /><path
         d="m 1751.2,307.996 91.36,0 19.78,33.848 -92.67,0 -18.47,-33.848"
         inkscape:connector-curvature="0"
         id="path26"
         style="fill:#ffffff;fill-opacity:1;fill-rule:nonzero;stroke:none" /><path
         d="m 1734.54,350.078 0.05,-0.012 c 0,26.086 7.82,35.879 33.2,35.879 l 82.54,0 24.71,42.785 -115.92,0 c -49.37,0 -81.99,-17.304 -81.99,-79.851 l 0,-127.309 178.35,0 24.7,42.774 -145.64,0 0,85.734"
         inkscape:connector-curvature="0"
         id="path28"
         style="fill:#ffffff;fill-opacity:1;fill-rule:nonzero;stroke:none" /><path
         d="m 1465,385.41 72.19,0 0,-163.437 56.79,0 0,163.437 53.42,0 24.77,42.93 -182.36,0 -24.81,-42.93"
         inkscape:connector-curvature="0"
         id="path30"
         style="fill:#ffffff;fill-opacity:1;fill-rule:nonzero;stroke:none" /><path
         d="m 1013.81,264.266 -31.501,0 0,121.781 31.501,0 c 45.87,0 60.26,-8.086 60.26,-59.328 0,-51.242 -14.39,-62.453 -60.26,-62.453 z m 12.37,164.464 -99.504,0 0,-207.16 102.154,0 c 71.75,0 104.04,27.676 104.04,105.207 0,73.321 -31.97,101.953 -106.69,101.953"
         inkscape:connector-curvature="0"
         id="path32"
         style="fill:#ffffff;fill-opacity:1;fill-rule:nonzero;stroke:none" /><path
         d="m 1165.26,221.973 58.0195,0 0,206.367 -58.0195,0 0,-206.367 z"
         inkscape:connector-curvature="0"
         id="path34"
         style="fill:#ffffff;fill-opacity:1;fill-rule:nonzero;stroke:none" /><path
         d="m 529.625,323.457 0,104.883 -68.996,-0.203 -119.012,-205.949 56.914,0 73.071,126.414 0,-125.567 -0.497,-0.847 0.497,0 0,-0.215 58.023,0 71.461,126.629 0,-126.629 58.031,0 0,206.367 -69.004,-0.203 -60.488,-104.68"
         inkscape:connector-curvature="0"
         id="path36"
         style="fill:#ffffff;fill-opacity:1;fill-rule:nonzero;stroke:none" /></g></g></svg>